<!DOCTYPE svg PUBLIC "-//W3C//DTD SVG 1.1//EN" "http://www.w3.org/Graphics/SVG/1.1/DTD/svg11.dtd">
<svg id="svgMap" xmlns="http://www.w3.org/2000/svg" width="1200" height="800" viewBox="0 0 1200 800" enable-background="new 0 0 1200 800">
<style type="text/css"><![CDATA[
					.Route, .Property{ stroke: #555; stroke-opacity: 1;  }
				    .Route{ fill: none; stroke-linejoin: round; }
				    .Property{ fill: #777; opacity: 0.5; stroke-width: 0; }
				    .Front{ stroke: #E22; }
				    .DebugPath{ fill-opacity: 0.5; }
				  ]]></style>
<g class="routes">
	<path class="Route" stroke-width="8" d="M 0,60 39,88 87,116 133,135 180,164 226,189 268,213 315,237 353,264 398,286 444,307 484,327 531,347 569,372 616,397 654,423 698,444 740,469 788,491 831,519 870,543 911,570 959,592 997,623 1045,650 1085,677 1123,700 1171,727 1200,740 " id="route37" />
	<path class="Route" stroke-width="8" d="M 732,0 721,46 705,92 688,134 677,182 660,229 644,279 623,324 612,371 598,419 580,471 566,516 554,564 536,611 521,663 502,709 485,754 468,800 " id="route38" />
	<path class="Route" stroke-width="8" d="M 0,326 52,334 104,337 148,338 193,346 243,351 291,361 342,369 391,377 445,384 495,386 544,392 598,396 651,398 697,408 742,419 789,428 840,428 885,437 930,440 979,449 1030,458 1080,461 1129,462 1173,469 1200,474 " id="route39" />
</g>
<g class="properties">
	<path class="Property" d="M 566,355 574,364 582,356 573,349 z" id="property2148" />
	<path class="Property" d="M 473,244 529,318 547,304 491,228 z" id="property2149" />
	<path class="Property" d="M 400,159 434,200 455,182 426,138 z" id="property2151" />
	<path class="Property" d="M 558,346 566,354 576,347 568,338 z" id="property2153" />
	<path class="Property" d="M 531,320 556,344 566,336 549,306 z" id="property2154" />
	<path class="Property" d="M 798,625 834,658 846,642 816,606 z" id="property2159" />
	<path class="Property" d="M 769,594 796,623 814,604 793,576 z" id="property2160" />
	<path class="Property" d="M 739,558 767,592 791,574 763,540 z" id="property2161" />
	<path class="Property" d="M 718,532 737,556 761,538 740,513 z" id="property2162" />
	<path class="Property" d="M 704,540 693,526 680,536 690,552 z" id="property2163" />
	<path class="Property" d="M 735,558 716,534 688,568 710,591 z" id="property2164" />
	<path class="Property" d="M 765,594 737,560 712,593 728,614 z" id="property2165" />
	<path class="Property" d="M 794,625 767,596 730,616 762,651 z" id="property2166" />
	<path class="Property" d="M 436,202 471,242 489,226 457,184 z" id="property2193" />
	<path class="Property" d="M 334,285 292,265 276,320 306,332 z" id="property2196" />
	<path class="Property" d="M 425,323 385,307 375,332 414,346 z" id="property2198" />
	<path class="Property" d="M 449,422 413,497 425,516 478,425 z" id="property2201" />
	<path class="Property" d="M 370,119 398,157 424,136 386,102 z" id="property2208" />
	<path class="Property" d="M 349,97 368,117 384,100 370,79 z" id="property2209" />
	<path class="Property" d="M 327,73 347,95 368,77 352,54 z" id="property2210" />
	<path class="Property" d="M 676,205 665,233 685,242 695,212 z" id="property2212" />
	<path class="Property" d="M 683,186 677,202 696,209 703,192 z" id="property2213" />
	<path class="Property" d="M 695,138 684,183 704,189 716,148 z" id="property2214" />
	<path class="Property" d="M 663,197 673,168 650,161 637,190 z" id="property2215" />
	<path class="Property" d="M 647,241 662,200 636,193 624,231 z" id="property2216" />
	<path class="Property" d="M 638,268 646,244 623,234 614,258 z" id="property2217" />
	<path class="Property" d="M 653,275 635,316 658,327 677,284 z" id="property2220" />
	<path class="Property" d="M 287,228 245,208 233,232 275,251 z" id="property2221" />
	<path class="Property" d="M 242,207 188,178 180,199 230,231 z" id="property2223" />
	<path class="Property" d="M 185,176 151,154 140,174 171,202 z" id="property2224" />
	<path class="Property" d="M 330,374 271,366 269,394 323,407 z" id="property2226" />
	<path class="Property" d="M 268,347 298,353 305,335 275,323 z" id="property2237" />
	<path class="Property" d="M 301,354 383,367 387,342 308,336 z" id="property2239" />
	<path class="Property" d="M 564,556 559,574 577,581 580,563 z" id="property2241" />
	<path class="Property" d="M 574,515 565,553 581,560 596,521 z" id="property2242" />
	<path class="Property" d="M 584,483 575,512 600,520 608,493 z" id="property2243" />
	<path class="Property" d="M 594,456 585,480 609,490 621,466 z" id="property2244" />
	<path class="Property" d="M 621,466 594,456 618,429 630,436 z" id="property2245" />
	<path class="Property" d="M 698,453 671,438 611,494 603,521 z" id="property2247" />
	<path class="Property" d="M 706,538 695,524 717,498 740,508 z" id="property2249" />
	<path class="Property" d="M 148,153 106,132 98,150 137,173 z" id="property2250" />
	<path class="Property" d="M 103,131 69,114 55,141 95,149 z" id="property2251" />
	<path class="Property" d="M 92,110 114,119 122,98 102,88 z" id="property2252" />
	<path class="Property" d="M 117,120 160,141 178,120 125,99 z" id="property2253" />
	<path class="Property" d="M 674,165 690,107 670,101 651,158 z" id="property2254" />
	<path class="Property" d="M 691,104 699,84 679,74 671,98 z" id="property2255" />
	<path class="Property" d="M 367,381 333,375 326,408 359,419 z" id="property2257" />
	<path class="Property" d="M 576,455 589,419 557,410 550,447 z" id="property2260" />
	<path class="Property" d="M 205,168 276,207 292,186 223,139 z" id="property2298" />
	<path class="Property" d="M 162,143 202,166 220,137 180,122 z" id="property2299" />
	<path class="Property" d="M 710,402 740,409 746,387 720,377 z" id="property2306" />
	<path class="Property" d="M 743,410 768,417 775,394 749,388 z" id="property2307" />
	<path class="Property" d="M 864,424 903,430 903,402 872,401 z" id="property2308" />
	<path class="Property" d="M 945,434 995,443 1003,405 952,397 z" id="property2309" />
	<path class="Property" d="M 998,444 1036,452 1046,415 1006,406 z" id="property2310" />
	<path class="Property" d="M 1045,466 1001,461 994,489 1044,494 z" id="property2311" />
	<path class="Property" d="M 1107,467 1077,468 1073,493 1103,492 z" id="property2312" />
	<path class="Property" d="M 969,455 933,449 939,542 966,554 z" id="property2313" />
	<path class="Property" d="M 928,569 960,584 970,564 938,545 z" id="property2314" />
	<path class="Property" d="M 856,525 925,568 935,544 869,500 z" id="property2315" />
	<path class="Property" d="M 396,277 418,287 427,268 409,256 z" id="property2372" />
	<path class="Property" d="M 421,288 444,298 452,275 430,269 z" id="property2373" />
	<path class="Property" d="M 447,299 466,309 474,291 455,276 z" id="property2374" />
	<path class="Property" d="M 478,333 464,326 455,340 471,350 z" id="property2375" />
	<path class="Property" d="M 461,324 439,314 428,324 417,347 z" id="property2376" />
	<path class="Property" d="M 496,378 513,381 481,334 474,351 z" id="property2377" />
	<path class="Property" d="M 685,396 703,400 705,384 690,376 z" id="property2429" />
	<path class="Property" d="M 657,390 682,395 687,375 663,366 z" id="property2430" />
	<path class="Property" d="M 621,365 618,376 627,379 630,368 z" id="property2431" />
	<path class="Property" d="M 634,319 621,364 650,375 657,330 z" id="property2432" />
	<path class="Property" d="M 755,484 701,454 687,480 745,508 z" id="property2433" />
	<path class="Property" d="M 792,503 769,489 742,511 763,536 z" id="property2434" />
	<path class="Property" d="M 822,522 795,505 765,538 793,572 z" id="property2435" />
	<path class="Property" d="M 825,432 768,432 786,480 821,453 z" id="property2436" />
	<path class="Property" d="M 788,482 853,524 847,459 823,455 z" id="property2437" />
	<path class="Property" d="M 848,437 828,433 823,452 847,456 z" id="property2438" />
	<path class="Property" d="M 763,431 716,421 711,430 742,460 z" id="property2439" />
	<path class="Property" d="M 744,462 758,471 783,481 765,433 z" id="property2440" />
	<path class="Property" d="M 664,236 654,272 678,281 684,245 z" id="property2441" />
	<path class="Property" d="M 564,484 575,458 549,450 538,476 z" id="property2442" />
	<path class="Property" d="M 557,514 563,487 537,479 532,511 z" id="property2443" />
	<path class="Property" d="M 549,552 557,517 532,514 520,540 z" id="property2444" />
	<path class="Property" d="M 537,584 548,555 519,543 508,573 z" id="property2445" />
	<path class="Property" d="M 527,611 537,585 509,576 499,605 z" id="property2446" />
	<path class="Property" d="M 519,639 526,614 498,608 494,632 z" id="property2447" />
	<path class="Property" d="M 504,677 518,642 493,635 477,664 z" id="property2448" />
	<path class="Property" d="M 492,708 503,680 476,667 464,698 z" id="property2449" />
	<path class="Property" d="M 478,746 491,711 463,701 446,733 z" id="property2450" />
	<path class="Property" d="M 545,606 534,635 562,648 573,615 z" id="property2451" />
	<path class="Property" d="M 557,577 547,603 575,615 583,585 z" id="property2452" />
	<path class="Property" d="M 525,672 503,725 530,738 562,687 z" id="property2453" />
	<path class="Property" d="M 535,643 529,663 547,669 556,648 z" id="property2454" />
	<path class="Property" d="M 502,728 491,756 517,768 529,741 z" id="property2455" />
	<path class="Property" d="M 338,263 290,229 278,252 327,279 z" id="property2456" />
	<path class="Property" d="M 360,276 340,265 329,281 357,292 z" id="property2457" />
	<path class="Property" d="M 341,241 393,275 406,254 356,212 z" id="property2459" />
	<path class="Property" d="M 506,328 517,333 522,321 513,317 z" id="property2460" />
	<path class="Property" d="M 311,226 338,240 353,211 323,198 z" id="property2461" />
	<path class="Property" d="M 278,209 308,225 320,197 294,188 z" id="property2462" />
	<path class="Property" d="M 554,409 487,393 529,511 534,479 z" id="property2466" />
	<path class="Property" d="M 65,94 89,109 99,87 76,74 z" id="property2468" />
	<path class="Property" d="M 476,393 448,392 449,419 478,422 z" id="property2475" />
	<path class="Property" d="M 443,391 422,390 424,410 443,411 z" id="property2476" />
	<path class="Property" d="M 410,387 370,382 362,420 404,428 z" id="property2477" />
	<path class="Property" d="M 66,113 33,94 19,118 52,140 z" id="property2478" />
	<path class="Property" d="M 30,92 9,76 -9,97 16,116 z" id="property2479" />
	<path class="Property" d="M 16,62 43,81 51,68 26,44 z" id="property2480" />
	<path class="Property" d="M 46,83 62,93 73,73 54,70 z" id="property2481" />
	<path class="Property" d="M 930,449 862,443 859,480 924,487 z" id="property2528" />
	<path class="Property" d="M 906,430 942,433 949,396 906,402 z" id="property2529" />
	<path class="Property" d="M 1134,454 1169,460 1176,426 1142,420 z" id="property2530" />
	<path class="Property" d="M 1136,471 1110,467 1106,492 1132,498 z" id="property2531" />
	<path class="Property" d="M 1074,468 1048,466 1047,494 1070,493 z" id="property2532" />
	<path class="Property" d="M 1051,451 1092,453 1092,418 1051,433 z" id="property2533" />
	<path class="Property" d="M 1095,453 1131,453 1139,419 1095,418 z" id="property2534" />
	<path class="Property" d="M 779,417 812,424 819,390 787,382 z" id="property2535" />
	<path class="Property" d="M 579,329 598,378 608,360 611,335 z" id="property2538" />
	<path class="Property" d="M 612,332 619,304 598,296 580,326 z" id="property2539" />
	<path class="Property" d="M 620,301 637,271 613,261 599,293 z" id="property2540" />
	<path class="Property" d="M 860,546 824,525 795,574 816,602 z" id="property2541" />
	<path class="Property" d="M 903,574 863,547 844,585 883,606 z" id="property2542" />
	<path class="Property" d="M 943,593 906,576 886,608 929,629 z" id="property2543" />
	<path class="Property" d="M 990,627 946,594 932,630 968,659 z" id="property2544" />
	<path class="Property" d="M 1050,663 992,629 970,661 1029,700 z" id="property2545" />
	<path class="Property" d="M 1086,687 1053,664 1032,701 1073,715 z" id="property2546" />
	<path class="Property" d="M 1129,712 1089,688 1076,716 1114,739 z" id="property2547" />
	<path class="Property" d="M 1177,738 1132,713 1117,740 1167,768 z" id="property2548" />
	<path class="Property" d="M 1148,704 1177,721 1193,693 1168,675 z" id="property2549" />
	<path class="Property" d="M 1111,683 1144,704 1167,668 1131,649 z" id="property2550" />
	<path class="Property" d="M 1054,646 1108,681 1128,647 1073,615 z" id="property2551" />
	<path class="Property" d="M 983,602 1026,630 1040,604 1008,573 z" id="property2552" />
	<path class="Property" d="M 963,585 981,594 993,577 973,565 z" id="property2553" />
	<path class="Property" d="M 1029,631 1051,644 1070,613 1043,605 z" id="property2554" />
	<path class="Property" d="M 704,117 696,135 717,145 733,127 z" id="property2555" />
	<path class="Property" d="M 715,88 705,114 734,124 742,96 z" id="property2556" />
	<path class="Property" d="M 727,50 716,85 743,93 754,60 z" id="property2557" />
	<path class="Property" d="M 719,15 724,-9 703,-12 694,10 z" id="property2558" />
	<path class="Property" d="M 709,51 718,18 693,13 684,41 z" id="property2559" />
	<path class="Property" d="M 702,75 706,63 695,62 691,70 z" id="property2560" />
	<path class="Property" d="M 520,334 531,338 538,327 525,322 z" id="property2561" />
	<path class="Property" d="M 404,370 418,372 419,360 409,355 z" id="property2562" />
	<path class="Property" d="M 419,372 438,375 443,355 422,353 z" id="property2563" />
	<path class="Property" d="M 465,781 472,764 453,756 450,773 z" id="property2564" />
	<path class="Property" d="M 213,339 265,346 272,322 219,311 z" id="property2565" />
	<path class="Property" d="M 167,333 210,338 216,310 175,310 z" id="property2566" />
	<path class="Property" d="M 110,329 164,332 172,309 109,302 z" id="property2567" />
	<path class="Property" d="M 54,326 107,329 106,302 54,297 z" id="property2568" />
	<path class="Property" d="M 24,337 5,334 2,351 20,358 z" id="property2569" />
	<path class="Property" d="M 64,344 29,340 26,369 66,377 z" id="property2570" />
	<path class="Property" d="M 101,344 67,344 69,377 104,380 z" id="property2571" />
	<path class="Property" d="M 166,352 104,344 107,380 166,383 z" id="property2572" />
	<path class="Property" d="M 219,353 169,352 169,383 212,384 z" id="property2573" />
	<path class="Property" d="M 268,366 222,354 215,385 266,394 z" id="property2574" />
</g>
<g class="debug"></g>
</svg>
